<svg id="standard_action_chevron-right-circle" data-name="standard/action/chevron-right-circle" xmlns="http://www.w3.org/2000/svg" width="16" height="16" viewBox="0 0 16 16">
  <g id="Group_110" data-name="Group 110" transform="translate(0 0)">
    <path id="Combined_Shape" data-name="Combined Shape" d="M8,16a8,8,0,1,1,8-8A8.009,8.009,0,0,1,8,16ZM7.114,4.444a.889.889,0,0,0-.63.259.878.878,0,0,0,0,1.25L8.552,8,6.493,10.047a.878.878,0,0,0,0,1.25.9.9,0,0,0,1.261,0l2.627-2.6a.964.964,0,0,0,0-1.375L7.745,4.7A.889.889,0,0,0,7.114,4.444Z" transform="translate(0 0)" fill="#335cd5"/>
  </g>
</svg>
