<svg xmlns="http://www.w3.org/2000/svg" width="32" height="32.001" viewBox="0 0 32 32.001">
  <g id="Group_236" data-name="Group 236" transform="translate(-3021 -4758)">
    <g id="Group_236-2" data-name="Group 236" transform="translate(3021 4758)">
      <path id="Union_1" data-name="Union 1" d="M0,16A16,16,0,1,1,16,32,16,16,0,0,1,0,16ZM12.482,7.518a6.25,6.25,0,0,0-2.071.4,4.358,4.358,0,0,0-2.5,2.5,6.23,6.23,0,0,0-.4,2.07c-.04.911-.051,1.2-.051,3.519s.011,2.608.052,3.518a6.254,6.254,0,0,0,.4,2.072,4.369,4.369,0,0,0,2.494,2.5,6.289,6.289,0,0,0,2.072.4c.911.042,1.2.053,3.519.053s2.608-.011,3.518-.053a6.289,6.289,0,0,0,2.073-.4,4.372,4.372,0,0,0,2.5-2.5,6.336,6.336,0,0,0,.4-2.071c.04-.91.051-1.2.051-3.519s-.011-2.607-.051-3.519a6.334,6.334,0,0,0-.4-2.07,4.364,4.364,0,0,0-2.5-2.5,6.27,6.27,0,0,0-2.073-.4c-.91-.04-1.2-.051-3.517-.051S13.392,7.477,12.482,7.518Zm.068,15.429a4.724,4.724,0,0,1-1.586-.295,2.835,2.835,0,0,1-1.621-1.62,4.705,4.705,0,0,1-.294-1.585C9.01,18.547,9,18.277,9,16s.008-2.55.049-3.449a4.75,4.75,0,0,1,.294-1.586A2.832,2.832,0,0,1,10.965,9.34a4.7,4.7,0,0,1,1.586-.294C13.339,9.01,13.644,9,15.235,9V9H16c2.28,0,2.55.007,3.45.048a4.724,4.724,0,0,1,1.586.295,2.832,2.832,0,0,1,1.62,1.62,4.7,4.7,0,0,1,.294,1.586c.041.9.05,1.171.05,3.449s-.008,2.549-.05,3.449a4.69,4.69,0,0,1-.294,1.585,2.832,2.832,0,0,1-1.62,1.619,4.674,4.674,0,0,1-1.586.295c-.9.041-1.171.05-3.45.05S13.451,22.988,12.551,22.947ZM11.617,16A4.385,4.385,0,1,0,16,11.615,4.384,4.384,0,0,0,11.617,16Zm7.918-4.558a1.024,1.024,0,1,0,1.024-1.024A1.025,1.025,0,0,0,19.535,11.442ZM13.155,16A2.847,2.847,0,1,1,16,18.847,2.846,2.846,0,0,1,13.155,16Z"/>
    </g>
  </g>
</svg>
