<svg xmlns="http://www.w3.org/2000/svg" width="32" height="32" viewBox="0 0 32 32">
  <path id="Telegram_black" d="M32,16A16,16,0,1,1,16,0,16,16,0,0,1,32,16ZM10.714,14.534c-1.6.7-3.25,1.419-4.756,2.248-.786.576.259.983,1.239,1.365.156.061.31.121.455.181l.368.116c1.09.347,2.306.735,3.365.152,1.739-1,3.38-2.154,5.02-3.308.537-.378,1.074-.756,1.615-1.129l.085-.055c.46-.3,1.5-.97,1.113-.045-.906.99-1.876,1.867-2.851,2.749-.657.594-1.317,1.19-1.961,1.825-.561.456-1.143,1.372-.515,2.01,1.447,1.013,2.916,2,4.384,2.988l1.432.965a1.432,1.432,0,0,0,2.249-.885q.118-.7.238-1.391c.438-2.563.877-5.127,1.264-7.7.053-.4.112-.807.172-1.21a29.387,29.387,0,0,0,.335-2.941c-.117-.981-1.307-.766-1.969-.545-3.4,1.3-6.773,2.686-10.129,4.1Q11.3,14.281,10.714,14.534Z"/>
</svg>
