<svg xmlns="http://www.w3.org/2000/svg" width="32" height="32" viewBox="0 0 32 32">
  <path id="Twitter_black" d="M0,16A16,16,0,1,1,16,32,16,16,0,0,1,0,16Zm16.521-1.995.034.554-.56-.068a9.1,9.1,0,0,1-5.327-2.621l-.739-.734-.19.542a3.261,3.261,0,0,0,.694,3.344c.448.475.347.542-.425.26a1.32,1.32,0,0,0-.526-.124,4.048,4.048,0,0,0,.4,1.514,3.614,3.614,0,0,0,1.533,1.446l.548.26-.649.011c-.627,0-.649.011-.582.249a3.383,3.383,0,0,0,2.093,1.853l.694.237-.6.362a6.3,6.3,0,0,1-3,.836,3.311,3.311,0,0,0-.918.09,8.518,8.518,0,0,0,2.16.994,9.453,9.453,0,0,0,7.342-.836,9.825,9.825,0,0,0,3.727-4.384,11.654,11.654,0,0,0,.761-3.39c0-.52.034-.588.66-1.209a7.381,7.381,0,0,0,.783-.87c.112-.215.1-.215-.47-.023-.951.339-1.086.294-.616-.215a3.286,3.286,0,0,0,.761-1.209c0-.034-.168.023-.358.124a6.243,6.243,0,0,1-.985.384l-.6.192-.548-.373a4.554,4.554,0,0,0-.951-.5,3.823,3.823,0,0,0-1.959.045A3.235,3.235,0,0,0,16.521,14.005Z"/>
</svg>
